<mxfile host="app.diagrams.net" agent="Mozilla/5.0 (X11; Ubuntu; Linux x86_64; rv:134.0) Gecko/20100101 Firefox/134.0" version="26.0.7">
  <diagram name="Page-1" id="03PZm0T_RmHm_h9P0zk9">
    <mxGraphModel dx="1368" dy="790" grid="1" gridSize="10" guides="1" tooltips="1" connect="1" arrows="1" fold="1" page="1" pageScale="1" pageWidth="850" pageHeight="1100" math="0" shadow="0">
      <root>
        <mxCell id="0" />
        <mxCell id="1" parent="0" />
        <mxCell id="Cj07-POME2JDbYKZXf8M-1" value="alt" style="shape=umlFrame;whiteSpace=wrap;html=1;pointerEvents=0;gradientColor=none;swimlaneFillColor=none;" vertex="1" parent="1">
          <mxGeometry x="85" y="340" width="745" height="290" as="geometry" />
        </mxCell>
        <mxCell id="Cj07-POME2JDbYKZXf8M-5" value="" style="shape=umlLifeline;perimeter=lifelinePerimeter;whiteSpace=wrap;html=1;container=1;dropTarget=0;collapsible=0;recursiveResize=0;outlineConnect=0;portConstraint=eastwest;newEdgeStyle={&quot;curved&quot;:0,&quot;rounded&quot;:0};participant=umlActor;" vertex="1" parent="1">
          <mxGeometry x="140" y="120" width="20" height="480" as="geometry" />
        </mxCell>
        <mxCell id="Cj07-POME2JDbYKZXf8M-6" value="Inventory DB" style="shape=umlLifeline;perimeter=lifelinePerimeter;whiteSpace=wrap;html=1;container=1;dropTarget=0;collapsible=0;recursiveResize=0;outlineConnect=0;portConstraint=eastwest;newEdgeStyle={&quot;curved&quot;:0,&quot;rounded&quot;:0};" vertex="1" parent="1">
          <mxGeometry x="620" y="120" width="100" height="480" as="geometry" />
        </mxCell>
        <mxCell id="Cj07-POME2JDbYKZXf8M-20" value="" style="html=1;points=[[0,0,0,0,5],[0,1,0,0,-5],[1,0,0,0,5],[1,1,0,0,-5]];perimeter=orthogonalPerimeter;outlineConnect=0;targetShapes=umlLifeline;portConstraint=eastwest;newEdgeStyle={&quot;curved&quot;:0,&quot;rounded&quot;:0};" vertex="1" parent="Cj07-POME2JDbYKZXf8M-6">
          <mxGeometry x="50" y="270" width="10" height="60" as="geometry" />
        </mxCell>
        <mxCell id="Cj07-POME2JDbYKZXf8M-7" value="AHCM Inventory" style="shape=umlLifeline;perimeter=lifelinePerimeter;whiteSpace=wrap;html=1;container=1;dropTarget=0;collapsible=0;recursiveResize=0;outlineConnect=0;portConstraint=eastwest;newEdgeStyle={&quot;curved&quot;:0,&quot;rounded&quot;:0};" vertex="1" parent="1">
          <mxGeometry x="425" y="120" width="100" height="470" as="geometry" />
        </mxCell>
        <mxCell id="Cj07-POME2JDbYKZXf8M-14" value="" style="html=1;points=[[0,0,0,0,5],[0,1,0,0,-5],[1,0,0,0,5],[1,1,0,0,-5]];perimeter=orthogonalPerimeter;outlineConnect=0;targetShapes=umlLifeline;portConstraint=eastwest;newEdgeStyle={&quot;curved&quot;:0,&quot;rounded&quot;:0};" vertex="1" parent="Cj07-POME2JDbYKZXf8M-7">
          <mxGeometry x="50" y="130" width="10" height="140" as="geometry" />
        </mxCell>
        <mxCell id="Cj07-POME2JDbYKZXf8M-15" value="Check()" style="html=1;align=left;spacingLeft=2;endArrow=block;rounded=0;edgeStyle=orthogonalEdgeStyle;curved=0;rounded=0;" edge="1" target="Cj07-POME2JDbYKZXf8M-14" parent="Cj07-POME2JDbYKZXf8M-7">
          <mxGeometry relative="1" as="geometry">
            <mxPoint x="55" y="110" as="sourcePoint" />
            <Array as="points">
              <mxPoint x="85" y="140" />
            </Array>
          </mxGeometry>
        </mxCell>
        <mxCell id="Cj07-POME2JDbYKZXf8M-8" value="" style="endArrow=open;endFill=1;endSize=12;html=1;rounded=0;" edge="1" parent="1" source="Cj07-POME2JDbYKZXf8M-5" target="Cj07-POME2JDbYKZXf8M-7">
          <mxGeometry width="160" relative="1" as="geometry">
            <mxPoint x="340" y="410" as="sourcePoint" />
            <mxPoint x="500" y="410" as="targetPoint" />
            <Array as="points">
              <mxPoint x="320" y="230" />
            </Array>
          </mxGeometry>
        </mxCell>
        <mxCell id="Cj07-POME2JDbYKZXf8M-17" value="" style="endArrow=open;endFill=1;endSize=12;html=1;rounded=0;" edge="1" parent="1" source="Cj07-POME2JDbYKZXf8M-14">
          <mxGeometry width="160" relative="1" as="geometry">
            <mxPoint x="500" y="390" as="sourcePoint" />
            <mxPoint x="669.5" y="390" as="targetPoint" />
            <Array as="points">
              <mxPoint x="670" y="390" />
            </Array>
          </mxGeometry>
        </mxCell>
        <mxCell id="Cj07-POME2JDbYKZXf8M-19" value=" Stock" style="text;html=1;align=center;verticalAlign=middle;resizable=0;points=[];autosize=1;strokeColor=none;fillColor=none;" vertex="1" parent="1">
          <mxGeometry x="555" y="360" width="50" height="30" as="geometry" />
        </mxCell>
        <mxCell id="Cj07-POME2JDbYKZXf8M-23" value="Remove from stock" style="html=1;verticalAlign=bottom;endArrow=open;dashed=1;endSize=8;curved=0;rounded=0;exitX=0;exitY=1;exitDx=0;exitDy=-5;exitPerimeter=0;" edge="1" parent="1" source="Cj07-POME2JDbYKZXf8M-20" target="Cj07-POME2JDbYKZXf8M-5">
          <mxGeometry relative="1" as="geometry">
            <mxPoint x="460" y="410" as="sourcePoint" />
            <mxPoint x="380" y="410" as="targetPoint" />
          </mxGeometry>
        </mxCell>
        <mxCell id="Cj07-POME2JDbYKZXf8M-25" value="" style="line;strokeWidth=1;fillColor=none;align=left;verticalAlign=middle;spacingTop=-1;spacingLeft=3;spacingRight=3;rotatable=0;labelPosition=right;points=[];portConstraint=eastwest;strokeColor=inherit;" vertex="1" parent="1">
          <mxGeometry x="80" y="481" width="750" height="8" as="geometry" />
        </mxCell>
        <mxCell id="Cj07-POME2JDbYKZXf8M-26" value="Not in stock/stock is low" style="html=1;verticalAlign=bottom;endArrow=open;dashed=1;endSize=8;curved=0;rounded=0;" edge="1" parent="1" source="Cj07-POME2JDbYKZXf8M-7" target="Cj07-POME2JDbYKZXf8M-5">
          <mxGeometry relative="1" as="geometry">
            <mxPoint x="680" y="455" as="sourcePoint" />
            <mxPoint x="160" y="455" as="targetPoint" />
            <Array as="points">
              <mxPoint x="330" y="550" />
            </Array>
          </mxGeometry>
        </mxCell>
        <mxCell id="Cj07-POME2JDbYKZXf8M-27" value="Billing Process" style="shape=umlLifeline;perimeter=lifelinePerimeter;whiteSpace=wrap;html=1;container=1;dropTarget=0;collapsible=0;recursiveResize=0;outlineConnect=0;portConstraint=eastwest;newEdgeStyle={&quot;curved&quot;:0,&quot;rounded&quot;:0};" vertex="1" parent="1">
          <mxGeometry x="740" y="120" width="100" height="480" as="geometry" />
        </mxCell>
        <mxCell id="Cj07-POME2JDbYKZXf8M-29" value="" style="endArrow=open;endFill=1;endSize=12;html=1;rounded=0;" edge="1" parent="1">
          <mxGeometry width="160" relative="1" as="geometry">
            <mxPoint x="680" y="450" as="sourcePoint" />
            <mxPoint x="789.5" y="450" as="targetPoint" />
            <Array as="points">
              <mxPoint x="790" y="450" />
            </Array>
          </mxGeometry>
        </mxCell>
        <mxCell id="Cj07-POME2JDbYKZXf8M-30" value="Add to bill" style="text;html=1;align=center;verticalAlign=middle;resizable=0;points=[];autosize=1;strokeColor=none;fillColor=none;" vertex="1" parent="1">
          <mxGeometry x="681" y="428" width="80" height="30" as="geometry" />
        </mxCell>
        <mxCell id="Cj07-POME2JDbYKZXf8M-31" value="&lt;div&gt;Used Medical Inventory&lt;/div&gt;" style="text;html=1;align=center;verticalAlign=middle;resizable=0;points=[];autosize=1;strokeColor=none;fillColor=none;" vertex="1" parent="1">
          <mxGeometry x="216" y="198" width="150" height="30" as="geometry" />
        </mxCell>
      </root>
    </mxGraphModel>
  </diagram>
</mxfile>
